<?xml version="1.0" standalone="no"?><!DOCTYPE svg PUBLIC "-//W3C//DTD SVG 1.1//EN" "http://www.w3.org/Graphics/SVG/1.1/DTD/svg11.dtd"><svg t="1671328260928" class="icon" viewBox="0 0 1024 1024" version="1.1" xmlns="http://www.w3.org/2000/svg" p-id="910" width="40" height="40" xmlns:xlink="http://www.w3.org/1999/xlink"><path d="M913.84707 829.619256a96.350109 96.350109 0 0 0-92.428884 70.582057 33.050328 33.050328 0 0 0-12.323851-2.800875H426.494772a58.818381 58.818381 0 0 1-56.017505-38.652079h10.643326a117.636761 117.636761 0 0 0 117.076586-117.636762 59.938731 59.938731 0 0 1 59.378556-59.378555h79.544858a150.126915 150.126915 0 1 0 0-56.017506h-78.424508a117.076586 117.076586 0 0 0-117.076586 117.076587 59.938731 59.938731 0 0 1-59.378556 59.378555h-15.124726v-61.059081a117.636761 117.636761 0 0 0-117.076587-117.076586H36.612934a28.568928 28.568928 0 0 0-28.568928 29.689278 29.129103 29.129103 0 0 0 28.568928 28.008753h213.426696a59.938731 59.938731 0 0 1 59.378556 59.378555v59.378556H36.612934a29.129103 29.129103 0 0 0 0 56.017506h274.485777a117.636761 117.636761 0 0 0 115.396061 96.910284h382.599563a33.050328 33.050328 0 0 0 12.323851 0 95.789934 95.789934 0 0 0 92.428884 70.582057 96.910284 96.910284 0 0 0 0-193.820569zM785.566982 560.175055a92.428884 92.428884 0 1 1-91.868709 92.428884A91.868709 91.868709 0 0 1 785.566982 560.175055zM7.483831 467.746171a29.129103 29.129103 0 0 1 29.129103-29.129103h410.04814a96.910284 96.910284 0 1 1 0 56.017505H36.612934A29.129103 29.129103 0 0 1 7.483831 467.746171z m29.129103-112.035011h284.008753a117.636761 117.636761 0 0 0 117.076586-117.636762A59.378556 59.378556 0 0 1 497.076829 179.256018h221.269147a150.126915 150.126915 0 1 0 0-56.017506H497.076829a117.636761 117.636761 0 0 0-117.076586 117.636762 59.938731 59.938731 0 0 1-59.378556 57.137855H36.612934a29.129103 29.129103 0 0 0-29.129103 29.129103 29.129103 29.129103 0 0 0 29.129103 29.129103zM865.672015 56.017505a91.868709 91.868709 0 1 1-91.868709 91.868709A91.308534 91.308534 0 0 1 865.672015 56.017505z" fill="#1296db" p-id="911"></path></svg>