<?xml version="1.0" standalone="no"?><!DOCTYPE svg PUBLIC "-//W3C//DTD SVG 1.1//EN" "http://www.w3.org/Graphics/SVG/1.1/DTD/svg11.dtd"><svg t="1671262633727" class="icon" viewBox="0 0 1024 1024" version="1.1" xmlns="http://www.w3.org/2000/svg" p-id="1630" xmlns:xlink="http://www.w3.org/1999/xlink" width="16" height="16"><path d="M128 192v-32a32 32 0 0 1 32-32h320a32 32 0 0 1 32 32v384a32 32 0 0 1-32 32h-320a32 32 0 0 1-32-32V192z m64 0v320h256V192H192z m416 192a32 32 0 0 1-32-32v-192a32 32 0 0 1 32-32h256a32 32 0 0 1 32 32v192a32 32 0 0 1-32 32h-256zM832 256V192h-192v128h192V256zM576 480a32 32 0 0 1 32-32h256a32 32 0 0 1 32 32v384a32 32 0 0 1-32 32h-256a32 32 0 0 1-32-32v-384z m256 224V512h-192v320h192v-128zM128 704v-32a32 32 0 0 1 32-32h320a32 32 0 0 1 32 32v192a32 32 0 0 1-32 32h-320a32 32 0 0 1-32-32V704z m64 0v128h256v-128H192z" fill="#1296db" p-id="1631"></path></svg>