<?xml version="1.0" standalone="no"?><!DOCTYPE svg PUBLIC "-//W3C//DTD SVG 1.1//EN" "http://www.w3.org/Graphics/SVG/1.1/DTD/svg11.dtd"><svg t="1671262605885" class="icon" viewBox="0 0 1024 1024" version="1.1" xmlns="http://www.w3.org/2000/svg" p-id="1202" xmlns:xlink="http://www.w3.org/1999/xlink" width="16" height="16"><path d="M928 384h-192a32 32 0 0 0-32 32v64H64v64h640v64a32 32 0 0 0 32 32h192a32 32 0 0 0 32-32v-192a32 32 0 0 0-32-32M768 576V448h128v128h-128z m-320 173.248L370.752 672H64v-64h333.248l96 96H672a32 32 0 0 1 32 32v192a32 32 0 0 1-32 32h-192a32 32 0 0 1-32-32v-178.752zM512 768v128h128v-128H512zM448 274.752L370.752 352H64v64h333.248l96-96H672a32 32 0 0 0 32-32v-192a32 32 0 0 0-32-32h-192a32 32 0 0 0-32 32v178.752zM512 256V128h128v128H512z" fill="#1296db" p-id="1203"></path></svg>