<?xml version="1.0" standalone="no"?><!DOCTYPE svg PUBLIC "-//W3C//DTD SVG 1.1//EN" "http://www.w3.org/Graphics/SVG/1.1/DTD/svg11.dtd"><svg t="1698044949189" class="icon" viewBox="0 0 1024 1024" version="1.1" xmlns="http://www.w3.org/2000/svg" p-id="12558" width="16" height="16" xmlns:xlink="http://www.w3.org/1999/xlink"><path d="M512 186.181818m-186.181818 0a186.181818 186.181818 0 1 0 372.363636 0 186.181818 186.181818 0 1 0-372.363636 0Z" fill="#0e932e" opacity=".6" p-id="12559"></path><path d="M186.181818 837.818182m-186.181818 0a186.181818 186.181818 0 1 0 372.363636 0 186.181818 186.181818 0 1 0-372.363636 0Z" fill="#0e932e" opacity=".6" p-id="12560"></path><path d="M837.818182 837.818182m-186.181818 0a186.181818 186.181818 0 1 0 372.363636 0 186.181818 186.181818 0 1 0-372.363636 0Z" fill="#0e932e" opacity=".6" p-id="12561"></path><path d="M564.130909 893.533091c6.376727 31.511273 18.059636 61.160727 34.117818 87.877818l-62.976 36.352a46.545455 46.545455 0 0 1-46.545454 0l-62.976-36.352c16.058182-26.717091 27.741091-56.32 34.164363-87.877818l52.084364 30.114909z m-329.448727-740.677818a282.158545 282.158545 0 0 0 6.935273 103.517091l-86.202182 49.757091v254.091636a277.410909 277.410909 0 0 0-93.090909 27.229091V279.272727a46.545455 46.545455 0 0 1 23.272727-40.308363z m554.635636 0l149.038546 86.109091a46.545455 46.545455 0 0 1 23.272727 40.308363v308.130909a277.410909 277.410909 0 0 0-93.090909-27.182545v-254.091636l-86.155637-49.710546a279.738182 279.738182 0 0 0 6.935273-103.563636z" fill="#0e932e" opacity=".6" p-id="12562"></path></svg>