<?xml version="1.0" standalone="no"?><!DOCTYPE svg PUBLIC "-//W3C//DTD SVG 1.1//EN" "http://www.w3.org/Graphics/SVG/1.1/DTD/svg11.dtd"><svg t="1671333666552" class="icon" viewBox="0 0 1024 1024" version="1.1" xmlns="http://www.w3.org/2000/svg" p-id="1132" xmlns:xlink="http://www.w3.org/1999/xlink" width="16" height="16"><path d="M967.164544 249.82354L642.321808 45.203874a258.720047 258.720047 0 0 0-276.513061 0L40.725565 250.063986a38.711829 38.711829 0 0 0-13.464984 14.426768 43.761198 43.761198 0 0 0 13.464984 60.592428l106.998532 67.324919L365.568301 528.981509a259.200939 259.200939 0 0 0 276.753507 0l232.511418-146.672146 92.331318-58.187966a44.001644 44.001644 0 0 0 0-74.538303z m-371.008395 204.860111a172.640329 172.640329 0 0 1-184.42219 0l-182.017728-114.692809L145.07919 288.535368l266.654769-168.312298a171.678544 171.678544 0 0 1 184.42219 0l265.692985 168.312298-69.008042 43.761198zM780.097446 637.182272l15.148107-9.617846a43.039859 43.039859 0 0 1 44.24209 0l127.436454 73.576519a44.963428 44.963428 0 0 1 0 75.500088l-324.842735 206.783681a255.834693 255.834693 0 0 1-276.513061 0L40.725565 775.919695a44.963428 44.963428 0 0 1 0-75.500088l113.731024-72.133842a42.078075 42.078075 0 0 1 44.001644-1.202231l18.754799 10.098738a29.574875 29.574875 0 0 1 11.060522 40.394951 28.372645 28.372645 0 0 1-8.896507 9.617846L145.07919 738.169651l265.692985 169.754975a170.71676 170.71676 0 0 0 184.42219 0l266.654769-169.754975-81.992134-53.859936a27.891752 27.891752 0 0 1-12.743645-24.044614 28.613091 28.613091 0 0 1 12.984091-23.082829z" fill="#1296db" p-id="1133"></path><path d="M966.924097 503.253772l-106.758086-67.32492-232.511418 146.672146a260.162724 260.162724 0 0 1-276.753507 0L133.056883 444.82536l-92.090872 58.428412a44.722982 44.722982 0 0 0-13.945876 13.70543 44.001644 44.001644 0 0 0 13.945876 60.111535l324.842736 204.619665a258.720047 258.720047 0 0 0 276.513061 0L966.924097 577.070737a40.154505 40.154505 0 0 0 13.945877-13.70543 44.001644 44.001644 0 0 0-13.945877-60.111535z" fill="#1296db" p-id="1134"></path></svg>