<?xml version="1.0" standalone="no"?><!DOCTYPE svg PUBLIC "-//W3C//DTD SVG 1.1//EN" "http://www.w3.org/Graphics/SVG/1.1/DTD/svg11.dtd"><svg t="1671262662163" class="icon" viewBox="0 0 1024 1024" version="1.1" xmlns="http://www.w3.org/2000/svg" p-id="2058" xmlns:xlink="http://www.w3.org/1999/xlink" width="16" height="16"><path d="M384 416v64a192 192 0 1 1 117.888-343.552 256 256 0 0 0-50.496 42.432Q421.632 160 384 160q-52.992 0-90.496 37.504T256 288q0 52.992 37.504 90.496T384 416z m0 0q4.096 0 8.064-0.192l0.064 0.192H384z m448-64a192 192 0 1 1-384 0 192 192 0 0 1 384 0z m-64 0q0-52.992-37.504-90.496T640 224q-52.992 0-90.496 37.504T512 352q0 52.992 37.504 90.496T640 480q52.992 0 90.496-37.504T768 352z m-384 192v64q-127.68 0-256 44.416V800h128v64H96A32 32 0 0 1 64 832V629.696c0-13.12 8.128-24.96 20.416-29.568Q234.176 544 384 544zM320 896a32 32 0 0 0 32 32h576a32 32 0 0 0 32-32v-202.304a31.616 31.616 0 0 0-20.416-29.568Q789.824 608 640 608q-149.76 0-299.584 56.128a31.616 31.616 0 0 0-20.416 29.568V896z m64-32v-147.584q128.32-44.416 256-44.416t256 44.416V864H384z" fill="#1296db" fill-opacity=".9" p-id="2059"></path></svg>