<?xml version="1.0" standalone="no"?><!DOCTYPE svg PUBLIC "-//W3C//DTD SVG 1.1//EN" "http://www.w3.org/Graphics/SVG/1.1/DTD/svg11.dtd"><svg t="1695975707904" class="icon" viewBox="0 0 1024 1024" version="1.1" xmlns="http://www.w3.org/2000/svg" p-id="5744" xmlns:xlink="http://www.w3.org/1999/xlink" width="16" height="16"><path d="M927.04 1005.248H287.232a77.76 77.76 0 0 1-77.824-77.76V287.68c0-43.2 35.072-77.76 77.824-77.76h639.36c43.2 0 77.76 35.072 77.76 77.76v639.36a77.44 77.44 0 0 1-77.312 78.272zM287.232 269.44a18.24 18.24 0 0 0-18.304 18.24v639.36c0 10.112 8.192 18.24 18.24 18.24h639.36a18.24 18.24 0 0 0 18.24-18.24v-639.36a18.24 18.24 0 0 0-18.24-18.24h-639.36z m-74.432 589.44A148.928 148.928 0 0 1 64 710.08v-568.32C64 98.56 99.072 64 141.76 64h568.768a148.928 148.928 0 0 1 148.8 148.8h-59.968a88.96 88.96 0 0 0-88.832-88.832H141.76a18.24 18.24 0 0 0-18.24 18.304v568.768a88.96 88.96 0 0 0 88.768 88.832v59.008h0.512zM444.16 591.04c-35.072-23.04-51.392-34.048-51.392-48 0-14.4 13.44-14.848 21.12-14.4 8.192 0.512 66.752 0.512 66.752 0.512v-46.08H391.36c-14.848 0-44.16 17.28-52.288 45.056-5.312 19.2 2.368 37.952 3.84 41.792 2.368 5.76 6.72 14.4 18.688 26.432 32.64 33.536 68.16 38.848 72.448 59.968a16.192 16.192 0 0 1-1.408 12.032c-3.84 6.208-12.48 8.64-18.24 8.64H338.112v48s55.68 0.448 88.768 0a61.44 61.44 0 0 0 60.48-60.48c0-32.64-8.64-50.432-43.2-73.472zM623.232 478.72c-67.2 0-121.92 56.128-121.92 125.248 0 51.392 29.696 97.024 76.288 116.224l16.768-40.832a81.728 81.728 0 0 1-49.408-75.84c0-44.608 35.008-81.152 78.272-81.152 43.2 0 78.208 36.48 78.208 81.152 0 33.6-19.712 62.848-48.512 75.392v-43.712H609.28v142.528h43.712v-52.736c54.656-13.952 92.608-63.36 92.608-121.472-0.512-68.608-55.232-124.8-122.368-124.8zM832 679.36a24.576 24.576 0 0 1-24.512-24.512V483.072h-43.648v171.776c0 37.504 30.72 68.224 68.16 68.224h44.16v-43.712H832z" fill="#272F3B" p-id="5745"></path></svg>