<?xml version="1.0" standalone="no"?><!DOCTYPE svg PUBLIC "-//W3C//DTD SVG 1.1//EN" "http://www.w3.org/Graphics/SVG/1.1/DTD/svg11.dtd"><svg t="1696079369247" class="icon" viewBox="0 0 1024 1024" version="1.1" xmlns="http://www.w3.org/2000/svg" p-id="4058" xmlns:xlink="http://www.w3.org/1999/xlink" width="16" height="16"><path d="M742.4 755.456H564.770133c-14.421333 0-26.112 12.475733-26.112 27.869867v168.618666h28.433067L742.4 760.439467v-4.983467zM742.4 699.733333v-88.183466c0-15.189333 11.4688-27.477333 25.6-27.477334s25.6 12.288 25.6 27.477334v160.136533c0 7.2192-2.645333 14.1312-7.338667 19.285333L596.087467 998.7072a24.746667 24.746667 0 0 1-18.261334 8.226133H194.56C129.536 1006.933333 76.8 950.306133 76.8 880.452267V143.530667C76.8 73.693867 129.536 17.066667 194.56 17.066667h481.28C740.864 17.066667 793.6 73.693867 793.6 143.547733v48.930134c0 15.189333-11.4688 27.477333-25.6 27.477333s-25.6-12.288-25.6-27.477333V143.530667c0-39.4752-29.7984-71.492267-66.56-71.492267H194.56c-36.7616 0-66.56 32.017067-66.56 71.509333v736.887467c0 39.4752 29.7984 71.492267 66.56 71.492267H486.4v-168.618667C486.4 737.160533 521.489067 699.733333 564.770133 699.733333H742.4zM336.9472 256h40.328533L354.474667 429.3632c-3.874133 29.422933-12.561067 50.961067-26.1632 65.314133-15.086933 15.069867-36.7616 22.613333-65.365334 22.613334-24.814933 0-42.837333-7.168-53.691733-21.538134-11.2128-14.353067-15.1552-34.0992-11.861333-59.221333l1.092266-8.2432h40.328534l-1.041067 7.8848c-3.874133 29.44 6.2464 44.151467 30.72 44.151467 13.448533 0 24.0128-4.3008 31.300267-12.561067 7.287467-8.260267 12.1344-21.538133 14.5408-39.850667L336.9472 256z m158.8736 65.6896c26.180267 0 44.936533 6.826667 55.552 20.445867 9.472 11.844267 12.714667 29.0816 9.745067 51.694933l-15.581867 118.442667h-36.522667l3.208534-24.405334a84.718933 84.718933 0 0 1-28.296534 21.162667c-12.0832 5.393067-25.9072 8.260267-41.403733 8.260267-18.619733 0-32.426667-5.0176-41.847467-14.711467-9.710933-10.069333-13.568-22.613333-11.537066-38.058667 2.730667-20.821333 12.458667-36.9664 29.764266-48.0768 15.889067-10.769067 36.983467-16.520533 63.266134-17.237333l39.082666-1.0752 0.955734-7.168c3.208533-24.405333-7.9872-36.266667-33.4848-36.266667-11.042133 0-19.882667 1.792-26.999467 6.109867-8.192 4.6592-14.318933 11.844267-17.664 21.538133l-38.519467-3.242666c6.485333-20.445867 18.1248-35.5328 34.850134-44.8512 14.2336-8.618667 32.682667-12.561067 55.432533-12.561067z m21.572267 105.864533l-36.334934 1.092267c-31.453867 0.7168-48.469333 12.202667-51.4048 34.440533-0.853333 6.468267 0.853333 11.844267 5.802667 16.162134 4.949333 4.3008 11.502933 6.826667 20.138667 6.826666 15.1552 0 28.5184-4.676267 40.0384-13.653333 11.5712-9.335467 18.6368-21.162667 20.5312-35.5328l1.2288-9.335467z m76.3392-100.846933h42.734933l25.0368 134.587733 60.433067-134.587733h42.734933l-90.231467 185.565867h-39.287466l-41.4208-185.565867z m276.3776-5.0176c26.197333 0 44.9536 6.826667 55.569066 20.445867 9.472 11.844267 12.714667 29.0816 9.728 51.694933l-15.5648 118.442667h-36.522666l3.191466-24.405334a84.718933 84.718933 0 0 1-28.279466 21.162667c-12.0832 5.393067-25.9072 8.260267-41.4208 8.260267-18.602667 0-32.426667-5.0176-41.8304-14.711467-9.710933-10.069333-13.568-22.613333-11.537067-38.058667 2.730667-20.821333 12.4416-36.9664 29.764267-48.0768 15.872-10.769067 36.983467-16.520533 63.266133-17.237333l39.082667-1.0752 0.955733-7.168c3.208533-24.405333-7.9872-36.266667-33.501867-36.266667-11.025067 0-19.882667 1.792-26.999466 6.109867-8.192 4.6592-14.301867 11.844267-17.646934 21.538133l-38.519466-3.242666c6.485333-20.445867 18.107733-35.5328 34.850133-44.8512 14.2336-8.618667 32.682667-12.561067 55.415467-12.561067z m21.589333 105.864533l-36.352 1.092267c-31.453867 0.7168-48.469333 12.202667-51.387733 34.440533-0.853333 6.468267 0.853333 11.844267 5.802666 16.162134 4.949333 4.3008 11.502933 6.826667 20.1216 6.826666 15.172267 0 28.535467-4.676267 40.055467-13.653333 11.5712-9.335467 18.6368-21.162667 20.5312-35.5328l1.2288-9.335467z" fill="#1296db" p-id="4059"></path></svg>