<?xml version="1.0" standalone="no"?><!DOCTYPE svg PUBLIC "-//W3C//DTD SVG 1.1//EN" "http://www.w3.org/Graphics/SVG/1.1/DTD/svg11.dtd"><svg t="1671262654824" class="icon" viewBox="0 0 1024 1024" version="1.1" xmlns="http://www.w3.org/2000/svg" p-id="1844" xmlns:xlink="http://www.w3.org/1999/xlink" width="16" height="16"><path d="M541.696 49.28l385.664 222.72v445.376a60.032 60.032 0 0 1-29.952 51.968l-369.728 213.44a32 32 0 0 1-32 0L126.08 769.28a60.032 60.032 0 0 1-30.016-51.968V272L481.664 49.28a60.032 60.032 0 0 1 60.032 0zM191.936 290.496l319.68 184.576 134.208-77.44-319.68-184.576-134.208 77.44z m517.888 70.208l121.6-70.208-319.744-184.576-121.6 70.208 319.744 184.576z m-230.144 538.88V530.56L160 345.856v369.152l319.744 184.512z m383.68-553.6L543.68 530.496v369.024l319.68-184.512V345.92z" fill="#1296db" p-id="1845"></path></svg>