<?xml version="1.0" standalone="no"?><!DOCTYPE svg PUBLIC "-//W3C//DTD SVG 1.1//EN" "http://www.w3.org/Graphics/SVG/1.1/DTD/svg11.dtd"><svg t="1671262592666" class="icon" viewBox="0 0 1024 1024" version="1.1" xmlns="http://www.w3.org/2000/svg" p-id="888" width="16" height="16" xmlns:xlink="http://www.w3.org/1999/xlink"><path d="M128 96v832a32 32 0 0 0 32 32H448v-64H192V128h640v384h64V96a32 32 0 0 0-32-32h-704a32 32 0 0 0-32 32z m576 192H320v64h384v-64z m-192 192H320v64h192v-64z m85.76 181.76c-24.64 24.64-39.04 56.96-40.832 91.456a7.936 7.936 0 0 1-8 7.552h-48.128a8 8 0 0 1-8-8.32 204.16 204.16 0 0 1 362.816-119.744l20.288-15.808a8 8 0 0 1 12.928 6.4l-0.64 95.36a8.064 8.064 0 0 1-9.92 7.744l-93.248-22.528a8 8 0 0 1-3.008-14.08l23.04-17.92a139.584 139.584 0 0 0-108.288-51.072c-37.12 0-72.832 14.784-99.072 40.96z m246.912 99.008h48.128c4.48 0 8.192 3.84 8 8.32a204.16 204.16 0 0 1-362.816 119.808l-20.288 15.808a8 8 0 0 1-12.864-6.4l0.576-95.36a8.064 8.064 0 0 1 9.92-7.744l93.248 22.528c6.528 1.6 8.32 9.984 3.008 14.08l-23.04 17.92a139.584 139.584 0 0 0 108.288 51.072c37.12 0 72.896-14.784 99.072-40.96 24.576-24.64 39.04-56.96 40.768-91.456a7.936 7.936 0 0 1 8-7.616z" fill="#1296db" fill-opacity=".9" p-id="889"></path></svg>