<?xml version="1.0" standalone="no"?><!DOCTYPE svg PUBLIC "-//W3C//DTD SVG 1.1//EN" "http://www.w3.org/Graphics/SVG/1.1/DTD/svg11.dtd"><svg t="1671333622995" class="icon" viewBox="0 0 1024 1024" version="1.1" xmlns="http://www.w3.org/2000/svg" p-id="914" width="16" height="16" xmlns:xlink="http://www.w3.org/1999/xlink"><path d="M794.731891 286.103481c-57.317027 0-103.796802-59.002822-103.796802-131.251176S736.69238 24.082785 794.731891 24.082785s104.037629 58.761994 104.037629 131.251175-47.202258 130.76952-104.037629 130.769521z m214.336783 89.828786l-108.372531 144.496708a59.002822 59.002822 0 0 1-38.532455 24.082784h-7.465664a53.70461 53.70461 0 0 1-35.883349-12.763876l-80.677328-65.746002-78.26905 84.048919 120.413923 70.321731a72.248354 72.248354 0 0 1 32.511759 46.720602 87.661336 87.661336 0 0 1-6.743179 60.447789l-111.262465 216.745061a63.578551 63.578551 0 0 1-38.773283 33.715898 48.165569 48.165569 0 0 1-14.208843 2.167451 54.427093 54.427093 0 0 1-32.752587-11.318909 85.01223 85.01223 0 0 1-20.229539-103.555973l75.619943-146.904986-91.996237-53.945438-74.174976 138.476012a74.415804 74.415804 0 0 1-20.952023 24.082784l-191.217309 142.329257a53.945437 53.945437 0 0 1-31.30762 10.11477 52.741298 52.741298 0 0 1-16.135466-2.649107 64.541863 64.541863 0 0 1-37.809972-34.920037 85.01223 85.01223 0 0 1 22.637818-102.833491l178.453434-133.177798 88.383819-159.90969v-1.926623a72.248354 72.248354 0 0 1 17.580433-32.270931l123.303857-132.455315-55.390405-44.312324-116.079022 39.977423a61.411101 61.411101 0 0 1-76.583254-51.537159 78.26905 78.26905 0 0 1 42.3857-92.959549l144.496708-49.610536a53.463782 53.463782 0 0 1 50.33302 9.633114l146.664158 117.523989 3.612417 5.057384 72.248354 57.557856 72.248354-96.331139a57.798683 57.798683 0 0 1 43.108184-24.082784 56.835372 56.835372 0 0 1 44.793979 19.747883 86.216369 86.216369 0 0 1 5.779869 106.445908z m-650.235184-194.107243H104.519285A29.862653 29.862653 0 0 1 83.085607 144.496707a29.380997 29.380997 0 0 1 21.433678-21.433678h253.350894a30.103481 30.103481 0 0 1 0 57.798683z m-2.649106 397.365945H57.557855a29.862653 29.862653 0 0 1 0-57.557855h297.663217a29.862653 29.862653 0 0 1 0 57.557855z m-128.842898-203.740358H138.476011a29.862653 29.862653 0 0 1-21.433678-36.365004 29.380997 29.380997 0 0 1 21.433678-21.433678H228.786453a30.103481 30.103481 0 0 1 0 57.798682z" fill="#66B346" p-id="915"></path></svg>