<?xml version="1.0" standalone="no"?><!DOCTYPE svg PUBLIC "-//W3C//DTD SVG 1.1//EN" "http://www.w3.org/Graphics/SVG/1.1/DTD/svg11.dtd"><svg t="1671262671566" class="icon" viewBox="0 0 1024 1024" version="1.1" xmlns="http://www.w3.org/2000/svg" p-id="2488" xmlns:xlink="http://www.w3.org/1999/xlink" width="16" height="16"><path d="M160 246.528V896H64v64h896v-64h-96V548.672a32 32 0 0 0-18.88-29.184L608 412.8V109.44a32 32 0 0 0-42.752-30.144l-384 137.088a32 32 0 0 0-21.248 30.144zM544 896h-320V269.12l320-114.304V896z m-64-512h-192v64h192V384z m320 512h-192V483.008l192 86.4V896z m-320-352h-192v64h192v-64z m0 160h-192v64h192v-64z" fill="#1296db" p-id="2489"></path></svg>