<?xml version="1.0" standalone="no"?><!DOCTYPE svg PUBLIC "-//W3C//DTD SVG 1.1//EN" "http://www.w3.org/Graphics/SVG/1.1/DTD/svg11.dtd"><svg t="1671262494186" class="icon" viewBox="0 0 1024 1024" version="1.1" xmlns="http://www.w3.org/2000/svg" p-id="1895" xmlns:xlink="http://www.w3.org/1999/xlink" width="200" height="200"><path d="M701.238857 291.529143c31.433143 0 56.32 23.826286 58.020572 53.796571l0.091428 3.218286v502.070857c0 30.372571-24.283429 55.259429-54.820571 56.923429l-3.291429 0.091428H197.741714c-30.939429 0-56.301714-23.826286-58.020571-53.778285l-0.091429-3.236572V348.525714c0-30.354286 24.301714-55.241143 54.820572-56.923428l3.291428-0.091429H701.257143z m-124.269714 333.44a96 96 0 1 0 0 192 96 96 0 0 0 0-192zM849.517714 139.629714c30.957714 0 56.32 23.844571 58.020572 53.796572l0.091428 3.236571v550.217143c0 30.390857-24.283429 55.259429-54.820571 56.941714l-3.291429 0.091429H791.405714V310.692571c0-30.354286-24.283429-55.241143-54.820571-56.923428l-3.291429-0.091429H287.926857v-57.014857c0-30.372571 24.283429-55.259429 54.820572-56.941714l3.291428-0.091429h503.478857zM576.969143 663.369143l16.932571 34.285714 37.851429 5.522286-27.392 26.697143 6.454857 37.686857-33.846857-17.792-33.846857 17.792 6.454857-37.705143-27.392-26.697143 37.851428-5.485714 16.932572-34.304z m-192.566857-102.034286h-125.915429a36.571429 36.571429 0 0 0-36.571428 36.571429v2.304a36.571429 36.571429 0 0 0 36.571428 36.571428h125.915429a36.571429 36.571429 0 0 0 36.571428-36.571428v-2.285715a36.571429 36.571429 0 0 0-36.571428-36.571428z m159.232-169.691428H258.486857a36.571429 36.571429 0 0 0-36.571428 36.571428v2.285714a36.571429 36.571429 0 0 0 36.571428 36.571429H543.634286a36.571429 36.571429 0 0 0 36.571428-36.571429v-2.285714a36.571429 36.571429 0 0 0-36.571428-36.571428z" fill="#1296db" p-id="1896"></path></svg>