<?xml version="1.0" standalone="no"?><!DOCTYPE svg PUBLIC "-//W3C//DTD SVG 1.1//EN" "http://www.w3.org/Graphics/SVG/1.1/DTD/svg11.dtd"><svg t="1671262530990" class="icon" viewBox="0 0 1024 1024" version="1.1" xmlns="http://www.w3.org/2000/svg" p-id="2251" width="16" height="16" xmlns:xlink="http://www.w3.org/1999/xlink"><path d="M720.676571 526.848C827.593143 526.848 914.285714 613.540571 914.285714 720.475429c0 106.916571-86.674286 193.609143-193.609143 193.609142-106.934857 0-193.609143-86.674286-193.609142-193.609142 0-106.934857 86.674286-193.627429 193.609142-193.627429zM720.438857 128c34.614857 0 60.982857 28.873143 60.982857 62.811429l-1.115428 289.737142a246.125714 246.125714 0 0 0-65.572572-8.832c-135.259429 0-244.918857 109.202286-244.918857 243.894858 0 71.68 31.049143 136.137143 80.493714 180.754285l-99.181714 0.896H169.088c-32.950857 0-60.928-28.873143-59.300571-62.811428V190.848A59.428571 59.428571 0 0 1 169.088 128H720.457143z m4.955429 480.274286c-2.212571-1.133714-4.973714-0.987429-8.356572 0.548571a21.046857 21.046857 0 0 0-8.356571 2.523429c-2.212571 1.298286-4.278857 2.925714-6.125714 4.754285l-89.124572 93.110858c-3.382857 3.382857-5.229714 6.820571-5.595428 10.349714-0.384 3.529143 0.365714 7.204571 2.212571 10.88 1.828571 3.693714 4.370286 6.363429 7.497143 8.045714 3.090286 1.700571 6.601143 2.541714 10.276571 2.541714h46.226286v64.146286c0.365714 5.595429 2.688 10.496 6.966857 14.793143 4.205714 4.297143 9.142857 6.582857 14.72 6.966857h42.386286c14.409143 0 21.686857-7.277714 21.686857-21.76v-64.146286h42.843429c10.806857 1.152 17.773714-2.450286 20.918857-10.587428 3.145143-8.118857 2.157714-15.250286-2.907429-21.211429l-89.142857-96.493714c-1.828571-1.846857-3.894857-3.291429-6.125714-4.461714z m-276.242286-118.857143H226.834286c-12.288-0.073143-23.661714 6.875429-29.824 18.212571a38.692571 38.692571 0 0 0 0 36.681143c6.162286 11.337143 17.536 18.285714 29.805714 18.230857h222.354286c12.269714 0.073143 23.643429-6.893714 29.805714-18.230857a38.692571 38.692571 0 0 0 0-36.681143c-6.162286-11.337143-17.536-18.285714-29.805714-18.230857z m152.923429-196.187429H226.834286c-12.288-0.054857-23.661714 6.893714-29.824 18.230857a38.692571 38.692571 0 0 0 0 36.681143c6.162286 11.337143 17.536 18.285714 29.805714 18.230857h375.259429c12.288 0.054857 23.661714-6.893714 29.824-18.230857a38.692571 38.692571 0 0 0 0-36.681143c-6.162286-11.337143-17.536-18.285714-29.805715-18.230857z" fill="#1296db" p-id="2252"></path></svg>